<svg xmlns="http://www.w3.org/2000/svg" fill-rule="evenodd" stroke-linejoin="round" stroke-miterlimit="2" clip-rule="evenodd" viewBox="0 0 64 64"><path d="M46.018 42a1 1 0 0 0-1 1v11h-32V43a1 1 0 0 0-1-1h-4a1 1 0 0 0-1 1v16a1 1 0 0 0 1 1h42a1 1 0 0 0 1-1V43a1 1 0 0 0-1-1zm1 2h2v14h-40V44h2v11a1 1 0 0 0 1 1h34a1 1 0 0 0 1-1z"/><path d="M41.02 47a1 1 0 0 0-1.001-1h-22a1 1 0 0 0-1 1v4a1 1 0 0 0 1 1h22a1 1 0 0 0 1-1zm-2.002 1v2h-20v-2zm2.967-7.604a1 1 0 0 0-.708-1.225l-21.25-5.694a1 1 0 0 0-1.225.707l-1.036 3.864a1 1 0 0 0 .708 1.224l21.25 5.694a1 1 0 0 0 1.226-.707zm-2.192.448-.517 1.932L19.958 37.6l.518-1.932zm5.144-6.807a1 1 0 0 0-.366-1.367l-19.053-11a1 1 0 0 0-1.366.366l-2 3.464a1 1 0 0 0 .366 1.367l19.053 11a1 1 0 0 0 1.366-.366zm-2.232-.135-1 1.732-17.32-10 1-1.731zm7.52-5.023a1 1 0 0 0 0-1.414L34.67 11.909a1 1 0 0 0-1.414 0l-2.829 2.828a1 1 0 0 0 0 1.414l15.557 15.557a1 1 0 0 0 1.414 0zm-2.121-.707-1.414 1.414-14.142-14.142 1.414-1.414zm8.379-3.253a1 1 0 0 0 .366-1.366l-11-19.053a1 1 0 0 0-1.367-.366l-3.464 2a1 1 0 0 0-.366 1.366l11 19.053a1 1 0 0 0 1.367.366zm-1.867-1.232-1.732 1-10-17.32 1.733-1z"/></svg>